<svg width="142" height="13" viewBox="0 0 142 13" fill="none" xmlns="http://www.w3.org/2000/svg">
<path d="M5.75202 1.816H6.77202L8.35602 9.04H8.36802L10.468 1.816H11.74L13.816 9.04H13.828L15.4 1.816H16.42L14.536 10H13.264L11.104 2.788H11.092L8.92002 10H7.64802L5.75202 1.816ZM20.726 7.228C20.566 7.236 20.414 7.244 20.27 7.252C20.126 7.26 19.982 7.272 19.838 7.288C19.702 7.296 19.578 7.308 19.466 7.324C18.89 7.396 18.482 7.524 18.242 7.708C18.002 7.884 17.882 8.14 17.882 8.476C17.882 8.756 17.966 8.968 18.134 9.112C18.31 9.248 18.538 9.316 18.818 9.316C19.202 9.316 19.542 9.252 19.838 9.124C20.142 8.988 20.438 8.812 20.726 8.596V7.228ZM20.714 9.436C20.338 9.652 19.986 9.828 19.658 9.964C19.338 10.092 18.99 10.156 18.614 10.156C18.078 10.156 17.65 10.028 17.33 9.772C17.018 9.508 16.862 9.076 16.862 8.476C16.862 8.164 16.942 7.892 17.102 7.66C17.262 7.428 17.47 7.236 17.726 7.084C17.99 6.924 18.286 6.8 18.614 6.712C18.942 6.624 19.278 6.568 19.622 6.544C19.766 6.528 19.954 6.516 20.186 6.508C20.418 6.492 20.598 6.48 20.726 6.472C20.726 6.192 20.718 5.944 20.702 5.728C20.686 5.504 20.638 5.316 20.558 5.164C20.478 5.004 20.358 4.884 20.198 4.804C20.046 4.724 19.826 4.684 19.538 4.684C19.306 4.684 19.082 4.7 18.866 4.732C18.65 4.756 18.458 4.784 18.29 4.816C18.09 4.856 17.906 4.9 17.738 4.948L17.546 4.12C17.746 4.072 17.962 4.028 18.194 3.988C18.394 3.948 18.626 3.916 18.89 3.892C19.154 3.86 19.438 3.844 19.742 3.844C20.15 3.844 20.478 3.904 20.726 4.024C20.982 4.144 21.178 4.308 21.314 4.516C21.458 4.716 21.554 4.948 21.602 5.212C21.658 5.468 21.686 5.74 21.686 6.028V8.908C21.686 9.02 21.686 9.14 21.686 9.268C21.694 9.388 21.702 9.508 21.71 9.628C21.726 9.748 21.742 9.872 21.758 10L20.834 10.096L20.714 9.436ZM24.7817 2.164V3.964H26.5217V4.744H24.7817V7.948C24.7817 8.212 24.7857 8.432 24.7937 8.608C24.8097 8.784 24.8377 8.924 24.8777 9.028C24.9177 9.132 24.9737 9.208 25.0457 9.256C25.1177 9.296 25.2097 9.316 25.3217 9.316C25.6257 9.308 25.9777 9.196 26.3777 8.98L26.6657 9.712C26.4017 9.888 26.1537 10.004 25.9217 10.06C25.6977 10.124 25.4737 10.156 25.2497 10.156C24.7217 10.156 24.3497 10.008 24.1337 9.712C23.9257 9.408 23.8217 8.908 23.8217 8.212V4.744H22.7177V3.964H23.8217V2.284L24.7817 2.164ZM34.871 2.944C34.679 2.896 34.479 2.852 34.271 2.812C34.087 2.772 33.875 2.74 33.635 2.716C33.403 2.684 33.159 2.668 32.903 2.668C32.311 2.668 31.887 2.76 31.631 2.944C31.375 3.12 31.247 3.396 31.247 3.772C31.255 4.068 31.363 4.32 31.571 4.528C31.779 4.728 32.039 4.916 32.351 5.092C32.663 5.26 33.003 5.428 33.371 5.596C33.747 5.756 34.091 5.944 34.403 6.16C34.715 6.368 34.975 6.616 35.183 6.904C35.399 7.184 35.507 7.528 35.507 7.936C35.507 8.408 35.403 8.788 35.195 9.076C34.995 9.364 34.739 9.588 34.427 9.748C34.115 9.908 33.771 10.016 33.395 10.072C33.027 10.128 32.675 10.156 32.339 10.156C32.019 10.156 31.727 10.136 31.463 10.096C31.199 10.056 30.971 10.012 30.779 9.964C30.555 9.908 30.351 9.844 30.167 9.772L30.407 8.8C30.591 8.88 30.787 8.948 30.995 9.004C31.179 9.052 31.383 9.096 31.607 9.136C31.839 9.176 32.083 9.196 32.339 9.196C32.651 9.196 32.935 9.176 33.191 9.136C33.455 9.096 33.683 9.032 33.875 8.944C34.067 8.856 34.215 8.74 34.319 8.596C34.431 8.452 34.487 8.276 34.487 8.068C34.479 7.756 34.375 7.504 34.175 7.312C33.983 7.112 33.723 6.924 33.395 6.748C33.075 6.564 32.727 6.388 32.351 6.22C31.983 6.052 31.643 5.86 31.331 5.644C31.019 5.428 30.755 5.172 30.539 4.876C30.331 4.58 30.227 4.212 30.227 3.772C30.227 3.516 30.271 3.264 30.359 3.016C30.447 2.768 30.595 2.548 30.803 2.356C31.019 2.164 31.295 2.008 31.631 1.888C31.975 1.768 32.399 1.708 32.903 1.708C33.191 1.708 33.463 1.724 33.719 1.756C33.983 1.78 34.211 1.808 34.403 1.84C34.627 1.88 34.839 1.924 35.039 1.972L34.871 2.944ZM40.4194 9.34H40.3954C40.3234 9.396 40.2194 9.472 40.0834 9.568C39.9474 9.656 39.7914 9.744 39.6154 9.832C39.4394 9.92 39.2434 9.996 39.0274 10.06C38.8194 10.124 38.6074 10.156 38.3914 10.156C38.0954 10.156 37.8434 10.116 37.6354 10.036C37.4274 9.964 37.2594 9.84 37.1314 9.664C37.0034 9.488 36.9114 9.256 36.8554 8.968C36.7994 8.68 36.7714 8.32 36.7714 7.888V3.964H37.7314V7.744C37.7314 7.984 37.7354 8.2 37.7434 8.392C37.7514 8.584 37.7794 8.748 37.8274 8.884C37.8754 9.02 37.9514 9.128 38.0554 9.208C38.1674 9.28 38.3234 9.316 38.5234 9.316C38.7314 9.316 38.9474 9.272 39.1714 9.184C39.3954 9.096 39.5994 8.996 39.7834 8.884C39.9994 8.756 40.2114 8.612 40.4194 8.452V3.964H41.3794V9.22C41.3874 9.508 41.4074 9.768 41.4394 10L40.4914 10.096L40.4194 9.34ZM44.5278 2.164V3.964H46.2678V4.744H44.5278V7.948C44.5278 8.212 44.5318 8.432 44.5398 8.608C44.5558 8.784 44.5838 8.924 44.6238 9.028C44.6638 9.132 44.7198 9.208 44.7918 9.256C44.8638 9.296 44.9558 9.316 45.0678 9.316C45.3718 9.308 45.7238 9.196 46.1238 8.98L46.4118 9.712C46.1478 9.888 45.8998 10.004 45.6678 10.06C45.4438 10.124 45.2198 10.156 44.9958 10.156C44.4678 10.156 44.0958 10.008 43.8798 9.712C43.6718 9.408 43.5678 8.908 43.5678 8.212V4.744H42.4638V3.964H43.5678V2.284L44.5278 2.164ZM47.4949 1.012L48.4549 0.904V4.72C48.6949 4.56 48.9309 4.42 49.1629 4.3C49.4029 4.18 49.6469 4.076 49.8949 3.988C50.1429 3.892 50.3829 3.844 50.6149 3.844C50.9429 3.844 51.2149 3.884 51.4309 3.964C51.6549 4.036 51.8349 4.16 51.9709 4.336C52.1069 4.512 52.2029 4.744 52.2589 5.032C52.3229 5.32 52.3549 5.68 52.3549 6.112V10H51.3949V6.22C51.3949 5.98 51.3909 5.768 51.3829 5.584C51.3749 5.392 51.3389 5.232 51.2749 5.104C51.2189 4.968 51.1269 4.864 50.9989 4.792C50.8789 4.72 50.7069 4.684 50.4829 4.684C50.2749 4.684 50.0509 4.732 49.8109 4.828C49.5709 4.916 49.3429 5.02 49.1269 5.14C48.9109 5.26 48.6869 5.4 48.4549 5.56V10H47.4949V1.012ZM57.4056 7.228C57.2456 7.236 57.0936 7.244 56.9496 7.252C56.8056 7.26 56.6616 7.272 56.5176 7.288C56.3816 7.296 56.2576 7.308 56.1456 7.324C55.5696 7.396 55.1616 7.524 54.9216 7.708C54.6816 7.884 54.5616 8.14 54.5616 8.476C54.5616 8.756 54.6456 8.968 54.8136 9.112C54.9896 9.248 55.2176 9.316 55.4976 9.316C55.8816 9.316 56.2216 9.252 56.5176 9.124C56.8216 8.988 57.1176 8.812 57.4056 8.596V7.228ZM57.3936 9.436C57.0176 9.652 56.6656 9.828 56.3376 9.964C56.0176 10.092 55.6696 10.156 55.2936 10.156C54.7576 10.156 54.3296 10.028 54.0096 9.772C53.6976 9.508 53.5416 9.076 53.5416 8.476C53.5416 8.164 53.6216 7.892 53.7816 7.66C53.9416 7.428 54.1496 7.236 54.4056 7.084C54.6696 6.924 54.9656 6.8 55.2936 6.712C55.6216 6.624 55.9576 6.568 56.3016 6.544C56.4456 6.528 56.6336 6.516 56.8656 6.508C57.0976 6.492 57.2776 6.48 57.4056 6.472C57.4056 6.192 57.3976 5.944 57.3816 5.728C57.3656 5.504 57.3176 5.316 57.2376 5.164C57.1576 5.004 57.0376 4.884 56.8776 4.804C56.7256 4.724 56.5056 4.684 56.2176 4.684C55.9856 4.684 55.7616 4.7 55.5456 4.732C55.3296 4.756 55.1376 4.784 54.9696 4.816C54.7696 4.856 54.5856 4.9 54.4176 4.948L54.2256 4.12C54.4256 4.072 54.6416 4.028 54.8736 3.988C55.0736 3.948 55.3056 3.916 55.5696 3.892C55.8336 3.86 56.1176 3.844 56.4216 3.844C56.8296 3.844 57.1576 3.904 57.4056 4.024C57.6616 4.144 57.8576 4.308 57.9936 4.516C58.1376 4.716 58.2336 4.948 58.2816 5.212C58.3376 5.468 58.3656 5.74 58.3656 6.028V8.908C58.3656 9.02 58.3656 9.14 58.3656 9.268C58.3736 9.388 58.3816 9.508 58.3896 9.628C58.4056 9.748 58.4216 9.872 58.4376 10L57.5136 10.096L57.3936 9.436ZM61.4614 2.164V3.964H63.2014V4.744H61.4614V7.948C61.4614 8.212 61.4654 8.432 61.4734 8.608C61.4894 8.784 61.5174 8.924 61.5574 9.028C61.5974 9.132 61.6534 9.208 61.7254 9.256C61.7974 9.296 61.8894 9.316 62.0014 9.316C62.3054 9.308 62.6574 9.196 63.0574 8.98L63.3454 9.712C63.0814 9.888 62.8334 10.004 62.6014 10.06C62.3774 10.124 62.1534 10.156 61.9294 10.156C61.4014 10.156 61.0294 10.008 60.8134 9.712C60.6054 9.408 60.5014 8.908 60.5014 8.212V4.744H59.3974V3.964H60.5014V2.284L61.4614 2.164ZM68.8794 2.752H66.3114V1.816H72.4554V2.752H69.8874V10H68.8794V2.752ZM73.5222 1.012L74.4822 0.904V4.72C74.7222 4.56 74.9582 4.42 75.1902 4.3C75.4302 4.18 75.6742 4.076 75.9222 3.988C76.1702 3.892 76.4102 3.844 76.6422 3.844C76.9702 3.844 77.2422 3.884 77.4582 3.964C77.6822 4.036 77.8622 4.16 77.9982 4.336C78.1342 4.512 78.2302 4.744 78.2862 5.032C78.3502 5.32 78.3822 5.68 78.3822 6.112V10H77.4222V6.22C77.4222 5.98 77.4182 5.768 77.4102 5.584C77.4022 5.392 77.3662 5.232 77.3022 5.104C77.2462 4.968 77.1542 4.864 77.0262 4.792C76.9062 4.72 76.7342 4.684 76.5102 4.684C76.3022 4.684 76.0782 4.732 75.8382 4.828C75.5982 4.916 75.3702 5.02 75.1542 5.14C74.9382 5.26 74.7142 5.4 74.4822 5.56V10H73.5222V1.012ZM84.537 9.856C84.353 9.912 84.161 9.96 83.961 10C83.769 10.04 83.553 10.076 83.313 10.108C83.081 10.14 82.837 10.156 82.581 10.156C82.181 10.156 81.809 10.1 81.465 9.988C81.121 9.876 80.821 9.696 80.565 9.448C80.309 9.2 80.105 8.88 79.953 8.488C79.809 8.088 79.737 7.6 79.737 7.024C79.737 6.504 79.809 6.048 79.953 5.656C80.097 5.256 80.293 4.924 80.541 4.66C80.797 4.388 81.093 4.184 81.429 4.048C81.773 3.912 82.145 3.844 82.545 3.844C82.937 3.844 83.277 3.92 83.565 4.072C83.853 4.224 84.089 4.432 84.273 4.696C84.465 4.952 84.605 5.256 84.693 5.608C84.789 5.952 84.837 6.316 84.837 6.7L84.657 7.228H80.781C80.781 7.476 80.813 7.724 80.877 7.972C80.941 8.22 81.049 8.444 81.201 8.644C81.361 8.844 81.565 9.008 81.813 9.136C82.069 9.256 82.385 9.316 82.761 9.316C83.001 9.316 83.221 9.304 83.421 9.28C83.621 9.248 83.793 9.216 83.937 9.184C84.089 9.144 84.229 9.1 84.357 9.052L84.537 9.856ZM83.841 6.46C83.841 6.404 83.829 6.28 83.805 6.088C83.781 5.896 83.725 5.696 83.637 5.488C83.549 5.28 83.413 5.096 83.229 4.936C83.045 4.768 82.801 4.684 82.497 4.684C82.161 4.684 81.885 4.756 81.669 4.9C81.453 5.036 81.281 5.2 81.153 5.392C81.025 5.584 80.937 5.78 80.889 5.98C80.841 6.18 80.817 6.34 80.817 6.46H83.841ZM86.1553 5.356C86.1553 5.068 86.1353 4.64 86.0953 4.072L86.9833 3.952L87.0913 4.6C87.2513 4.464 87.4153 4.344 87.5833 4.24C87.7593 4.128 87.9473 4.036 88.1473 3.964C88.3553 3.884 88.5753 3.844 88.8073 3.844C89.1353 3.844 89.4433 3.9 89.7313 4.012C90.0273 4.124 90.2833 4.304 90.4993 4.552C90.7233 4.8 90.8993 5.124 91.0273 5.524C91.1553 5.916 91.2193 6.4 91.2193 6.976C91.2193 7.56 91.1313 8.056 90.9553 8.464C90.7873 8.864 90.5633 9.192 90.2833 9.448C90.0113 9.696 89.6993 9.876 89.3473 9.988C89.0033 10.1 88.6513 10.156 88.2913 10.156C87.9073 10.148 87.5153 10.1 87.1153 10.012V12.616L86.1553 12.736V5.356ZM88.2913 9.316C88.6273 9.316 88.9153 9.256 89.1553 9.136C89.3953 9.016 89.5913 8.852 89.7433 8.644C89.9033 8.428 90.0193 8.184 90.0913 7.912C90.1633 7.632 90.1993 7.336 90.1993 7.024C90.1993 6.744 90.1713 6.464 90.1153 6.184C90.0673 5.904 89.9833 5.656 89.8633 5.44C89.7513 5.216 89.5993 5.036 89.4073 4.9C89.2153 4.756 88.9793 4.684 88.6993 4.684C88.4913 4.684 88.2953 4.724 88.1113 4.804C87.9273 4.876 87.7513 4.968 87.5833 5.08C87.4233 5.184 87.2673 5.304 87.1153 5.44V9.124C87.2033 9.156 87.2993 9.188 87.4033 9.22C87.5153 9.244 87.6433 9.268 87.7873 9.292C87.9393 9.308 88.1073 9.316 88.2913 9.316ZM91.9758 3.964H92.9838L93.6918 6.688C93.7558 6.92 93.8118 7.168 93.8598 7.432C93.9158 7.688 93.9678 7.928 94.0158 8.152C94.0638 8.416 94.1158 8.676 94.1718 8.932H94.1838C94.2398 8.676 94.3038 8.416 94.3758 8.152C94.4398 7.928 94.5078 7.688 94.5798 7.432C94.6518 7.168 94.7238 6.92 94.7958 6.688L95.6478 3.964H96.9318L97.6158 6.688C97.6718 6.92 97.7278 7.168 97.7838 7.432C97.8478 7.688 97.8998 7.928 97.9398 8.152C97.9878 8.416 98.0358 8.676 98.0838 8.932H98.0958C98.1678 8.668 98.2438 8.404 98.3238 8.14C98.3878 7.916 98.4598 7.676 98.5398 7.42C98.6198 7.156 98.6958 6.912 98.7678 6.688L99.6078 3.964H100.604L98.6238 10H97.5558L96.6918 6.688C96.6118 6.384 96.5438 6.112 96.4878 5.872C96.4398 5.624 96.3958 5.416 96.3558 5.248C96.3158 5.048 96.2798 4.872 96.2478 4.72H96.2238C96.1918 4.872 96.1518 5.048 96.1038 5.248C96.0638 5.416 96.0078 5.624 95.9358 5.872C95.8638 6.112 95.7838 6.384 95.6958 6.688L94.6758 10H93.6078L91.9758 3.964ZM104.925 7.228C104.765 7.236 104.613 7.244 104.469 7.252C104.325 7.26 104.181 7.272 104.037 7.288C103.901 7.296 103.777 7.308 103.665 7.324C103.089 7.396 102.681 7.524 102.441 7.708C102.201 7.884 102.081 8.14 102.081 8.476C102.081 8.756 102.165 8.968 102.333 9.112C102.509 9.248 102.737 9.316 103.017 9.316C103.401 9.316 103.741 9.252 104.037 9.124C104.341 8.988 104.637 8.812 104.925 8.596V7.228ZM104.913 9.436C104.537 9.652 104.185 9.828 103.857 9.964C103.537 10.092 103.189 10.156 102.813 10.156C102.277 10.156 101.849 10.028 101.529 9.772C101.217 9.508 101.061 9.076 101.061 8.476C101.061 8.164 101.141 7.892 101.301 7.66C101.461 7.428 101.669 7.236 101.925 7.084C102.189 6.924 102.485 6.8 102.813 6.712C103.141 6.624 103.477 6.568 103.821 6.544C103.965 6.528 104.153 6.516 104.385 6.508C104.617 6.492 104.797 6.48 104.925 6.472C104.925 6.192 104.917 5.944 104.901 5.728C104.885 5.504 104.837 5.316 104.757 5.164C104.677 5.004 104.557 4.884 104.397 4.804C104.245 4.724 104.025 4.684 103.737 4.684C103.505 4.684 103.281 4.7 103.065 4.732C102.849 4.756 102.657 4.784 102.489 4.816C102.289 4.856 102.105 4.9 101.937 4.948L101.745 4.12C101.945 4.072 102.161 4.028 102.393 3.988C102.593 3.948 102.825 3.916 103.089 3.892C103.353 3.86 103.637 3.844 103.941 3.844C104.349 3.844 104.677 3.904 104.925 4.024C105.181 4.144 105.377 4.308 105.513 4.516C105.657 4.716 105.753 4.948 105.801 5.212C105.857 5.468 105.885 5.74 105.885 6.028V8.908C105.885 9.02 105.885 9.14 105.885 9.268C105.893 9.388 105.901 9.508 105.909 9.628C105.925 9.748 105.941 9.872 105.957 10L105.033 10.096L104.913 9.436ZM107.589 4.936C107.589 4.752 107.569 4.464 107.529 4.072L108.417 3.952L108.513 4.828H108.525C108.669 4.644 108.809 4.484 108.945 4.348C109.081 4.212 109.221 4.096 109.365 4C109.517 3.896 109.661 3.844 109.797 3.844C109.981 3.836 110.237 3.856 110.565 3.904L110.349 4.828C110.085 4.78 109.901 4.76 109.797 4.768C109.661 4.768 109.517 4.832 109.365 4.96C109.213 5.088 109.081 5.224 108.969 5.368C108.825 5.544 108.685 5.744 108.549 5.968V10H107.589V4.936ZM114.898 7.228C114.738 7.236 114.586 7.244 114.442 7.252C114.298 7.26 114.154 7.272 114.01 7.288C113.874 7.296 113.75 7.308 113.638 7.324C113.062 7.396 112.654 7.524 112.414 7.708C112.174 7.884 112.054 8.14 112.054 8.476C112.054 8.756 112.138 8.968 112.306 9.112C112.482 9.248 112.71 9.316 112.99 9.316C113.374 9.316 113.714 9.252 114.01 9.124C114.314 8.988 114.61 8.812 114.898 8.596V7.228ZM114.886 9.436C114.51 9.652 114.158 9.828 113.83 9.964C113.51 10.092 113.162 10.156 112.786 10.156C112.25 10.156 111.822 10.028 111.502 9.772C111.19 9.508 111.034 9.076 111.034 8.476C111.034 8.164 111.114 7.892 111.274 7.66C111.434 7.428 111.642 7.236 111.898 7.084C112.162 6.924 112.458 6.8 112.786 6.712C113.114 6.624 113.45 6.568 113.794 6.544C113.938 6.528 114.126 6.516 114.358 6.508C114.59 6.492 114.77 6.48 114.898 6.472C114.898 6.192 114.89 5.944 114.874 5.728C114.858 5.504 114.81 5.316 114.73 5.164C114.65 5.004 114.53 4.884 114.37 4.804C114.218 4.724 113.998 4.684 113.71 4.684C113.478 4.684 113.254 4.7 113.038 4.732C112.822 4.756 112.63 4.784 112.462 4.816C112.262 4.856 112.078 4.9 111.91 4.948L111.718 4.12C111.918 4.072 112.134 4.028 112.366 3.988C112.566 3.948 112.798 3.916 113.062 3.892C113.326 3.86 113.61 3.844 113.914 3.844C114.322 3.844 114.65 3.904 114.898 4.024C115.154 4.144 115.35 4.308 115.486 4.516C115.63 4.716 115.726 4.948 115.774 5.212C115.83 5.468 115.858 5.74 115.858 6.028V8.908C115.858 9.02 115.858 9.14 115.858 9.268C115.866 9.388 115.874 9.508 115.882 9.628C115.898 9.748 115.914 9.872 115.93 10L115.006 10.096L114.886 9.436ZM117.562 4.936C117.562 4.752 117.542 4.464 117.502 4.072L118.39 3.952L118.486 4.828H118.498C118.642 4.644 118.782 4.484 118.918 4.348C119.054 4.212 119.194 4.096 119.338 4C119.49 3.896 119.634 3.844 119.77 3.844C119.954 3.836 120.21 3.856 120.538 3.904L120.322 4.828C120.058 4.78 119.874 4.76 119.77 4.768C119.634 4.768 119.49 4.832 119.338 4.96C119.186 5.088 119.054 5.224 118.942 5.368C118.798 5.544 118.658 5.744 118.522 5.968V10H117.562V4.936ZM124.87 7.228C124.71 7.236 124.558 7.244 124.414 7.252C124.27 7.26 124.126 7.272 123.982 7.288C123.846 7.296 123.722 7.308 123.61 7.324C123.034 7.396 122.626 7.524 122.386 7.708C122.146 7.884 122.026 8.14 122.026 8.476C122.026 8.756 122.11 8.968 122.278 9.112C122.454 9.248 122.682 9.316 122.962 9.316C123.346 9.316 123.686 9.252 123.982 9.124C124.286 8.988 124.582 8.812 124.87 8.596V7.228ZM124.858 9.436C124.482 9.652 124.13 9.828 123.802 9.964C123.482 10.092 123.134 10.156 122.758 10.156C122.222 10.156 121.794 10.028 121.474 9.772C121.162 9.508 121.006 9.076 121.006 8.476C121.006 8.164 121.086 7.892 121.246 7.66C121.406 7.428 121.614 7.236 121.87 7.084C122.134 6.924 122.43 6.8 122.758 6.712C123.086 6.624 123.422 6.568 123.766 6.544C123.91 6.528 124.098 6.516 124.33 6.508C124.562 6.492 124.742 6.48 124.87 6.472C124.87 6.192 124.862 5.944 124.846 5.728C124.83 5.504 124.782 5.316 124.702 5.164C124.622 5.004 124.502 4.884 124.342 4.804C124.19 4.724 123.97 4.684 123.682 4.684C123.45 4.684 123.226 4.7 123.01 4.732C122.794 4.756 122.602 4.784 122.434 4.816C122.234 4.856 122.05 4.9 121.882 4.948L121.69 4.12C121.89 4.072 122.106 4.028 122.338 3.988C122.538 3.948 122.77 3.916 123.034 3.892C123.298 3.86 123.582 3.844 123.886 3.844C124.294 3.844 124.622 3.904 124.87 4.024C125.126 4.144 125.322 4.308 125.458 4.516C125.602 4.716 125.698 4.948 125.746 5.212C125.802 5.468 125.83 5.74 125.83 6.028V8.908C125.83 9.02 125.83 9.14 125.83 9.268C125.838 9.388 125.846 9.508 125.854 9.628C125.87 9.748 125.886 9.872 125.902 10L124.978 10.096L124.858 9.436ZM127.534 5.056C127.534 4.784 127.51 4.456 127.462 4.072L128.362 3.952L128.494 4.708C128.71 4.548 128.922 4.408 129.13 4.288C129.338 4.168 129.562 4.064 129.802 3.976C130.042 3.888 130.286 3.844 130.534 3.844C130.934 3.844 131.25 3.916 131.482 4.06C131.714 4.196 131.886 4.432 131.998 4.768C132.326 4.536 132.666 4.324 133.018 4.132C133.378 3.94 133.75 3.844 134.134 3.844C134.43 3.844 134.682 3.884 134.89 3.964C135.098 4.036 135.266 4.16 135.394 4.336C135.522 4.512 135.614 4.744 135.67 5.032C135.726 5.32 135.754 5.68 135.754 6.112V10H134.794V6.22C134.794 5.98 134.79 5.768 134.782 5.584C134.774 5.392 134.746 5.232 134.698 5.104C134.65 4.968 134.57 4.864 134.458 4.792C134.354 4.72 134.202 4.684 134.002 4.684C133.818 4.684 133.642 4.712 133.474 4.768C133.314 4.816 133.146 4.888 132.97 4.984C132.794 5.08 132.522 5.276 132.154 5.572V10H131.194V6.22C131.194 5.98 131.19 5.768 131.182 5.584C131.174 5.392 131.146 5.232 131.098 5.104C131.05 4.968 130.97 4.864 130.858 4.792C130.754 4.72 130.602 4.684 130.402 4.684C130.194 4.684 129.978 4.728 129.754 4.816C129.53 4.904 129.318 5.008 129.118 5.128C128.918 5.248 128.71 5.388 128.494 5.548V10H127.534V5.056Z" fill="white"/>
</svg>
